Rome.S01.720p.BluRay.x264.RoSubbed-SiNNERS
 
http://www.imdb.com/title/tt0384766/

No nfo came with this so i dumped some mkv file data so you can see...

General

Format                           : Matroska
File size                        : 2.19 GiB
Duration                         : 52mn 17s
Overall bit rate                 : 5 989 Kbps
Encoded date                     : UTC 2009-11-03 15:00:48
Writing application              : mkvmerge v2.9.7 ('Tenderness') built on Jul  1 2009 18:43:35
Writing library                  : libebml v0.7.7 + libmatroska v0.8.1

Video

ID                               : 1
Format                           : AVC
Format/Info                      : Advanced Video Codec
Format profile                   : High@L3.1
Format settings, CABAC           : Yes
Format settings, ReFrames        : 5 frames
Muxing mode                      : Container profile=Unknown@3.1
Codec ID                         : V_MPEG4/ISO/AVC
Duration                         : 52mn 14s
Bit rate                         : 4 360 Kbps
Nominal bit rate                 : 4 475 Kbps
Width                            : 1 280 pixels
Height                           : 720 pixels
Display aspect ratio             : 16:9
Frame rate                       : 23.976 fps
Resolution                       : 24 bits
Colorimetry                      : 4:2:0
Scan type                        : Progressive
Bits/(Pixel*Frame)               : 0.197
Stream size                      : 1.59 GiB (73%)
Writing library                  : x264 core 78 r1318 fe83a90
Language                         : English

Audio

ID                               : 2
Format                           : DTS
Format/Info                      : Digital Theater Systems
Codec ID                         : A_DTS
Duration                         : 52mn 17s
Bit rate mode                    : Constant
Bit rate                         : 1 510 Kbps
Channel(s)                       : 6 channels
Channel positions                : Front: L C R, Surround: L R, LFE
Sampling rate                    : 48.0 KHz
Resolution                       : 24 bits
Stream size                      : 565 MiB (25%)
Language                         : English

Subtitle : English and Romanian